<svg xmlns="http://www.w3.org/2000/svg" viewBox="0 0 79.7 72.72"><g data-name="Layer 2"><path d="M79.7 25.1Q60.58 48.4 41.43 71.7c-1.12 1.37-2 1.36-3.17 0Q19.12 48.41 0 25.1V24a5.3 5.3 0 00.45-.51C5.23 16.65 10 9.79 14.76 2.88a3.15 3.15 0 012.76-1.52c2.65-.1 5.29-.38 7.94-.54C30.7.5 35.94-.1 41.17 0c6.72.16 13.42 1 20.13 1.3a4.72 4.72 0 014.17 2.29C70.14 10.46 74.94 17.23 79.7 24zM39.85 67.77l22.2-41.47H17.64c7.44 13.88 14.76 27.55 22.21 41.47zm0-64.19L19.16 22.89h41.38zM5 26.19l24.78 30.18c.12-.2.18-.27.17-.29Q22.17 41.52 14.37 27a1.54 1.54 0 00-1-.76c-2.66-.08-5.29-.05-8.37-.05zm44.69 30l.27.18c8.15-9.93 16.3-19.86 24.75-30.14-2.68 0-4.89.08-7.1 0a2.53 2.53 0 00-2.75 1.58c-3.47 6.62-7 13.19-10.56 19.77zm-32.8-36l.42.13L35.06 3.67l-.16-.34-16.82 1.22zM44.82 3.33l-.15.37 18.19 17C62.41 15 62 9.77 61.61 4.53zm-40 19.52h8.65l1-13.32-.36-.13zm70.1.09l-9.4-13.57-.35.2c.35 4.43.71 8.86 1.07 13.37z" fill="#fff" data-name="Layer 1"/></g></svg>