<svg xmlns="http://www.w3.org/2000/svg" viewBox="0 0 79.7 72.72"><defs><style>.cls-1{fill:#8561a9;}</style></defs><title>sketch</title><g id="Layer_2" data-name="Layer 2"><g id="Layer_1-2" data-name="Layer 1"><g id="qoZ5ZF"><path class="cls-1" d="M79.7,25.1Q60.58,48.4,41.43,71.7c-1.12,1.37-2,1.36-3.17,0Q19.12,48.41,0,25.1V24a5.3,5.3,0,0,0,.45-.51C5.23,16.65,10,9.79,14.76,2.88a3.15,3.15,0,0,1,2.76-1.52c2.65-.1,5.29-.38,7.94-.54C30.7.5,35.94-.1,41.17,0,47.89.16,54.59,1,61.3,1.3a4.72,4.72,0,0,1,4.17,2.29C70.14,10.46,74.94,17.23,79.7,24ZM39.85,67.77,62.05,26.3H17.64C25.08,40.18,32.4,53.85,39.85,67.77Zm0-64.19L19.16,22.89H60.54ZM5,26.19,29.78,56.37c.12-.2.18-.27.17-.29Q22.17,41.52,14.37,27a1.54,1.54,0,0,0-1-.76C10.71,26.16,8.08,26.19,5,26.19Zm44.69,30,.27.18c8.15-9.93,16.3-19.86,24.75-30.14-2.68,0-4.89.08-7.1,0a2.53,2.53,0,0,0-2.75,1.58c-3.47,6.62-7,13.19-10.56,19.77Zm-32.8-36,.42.13L35.06,3.67l-.16-.34L18.08,4.55ZM44.82,3.33l-.15.37,18.19,17C62.41,15,62,9.77,61.61,4.53Zm-40,19.52h8.65l1-13.32-.36-.13Zm70.1.09L65.52,9.37l-.35.2c.35,4.43.71,8.86,1.07,13.37Z"/></g></g></g></svg>